<svg xmlns="http://www.w3.org/2000/svg" xmlns:xlink="http://www.w3.org/1999/xlink" width="48" zoomAndPan="magnify" viewBox="0 0 36 36.000001" height="48" preserveAspectRatio="xMidYMid meet" version="1.0"><defs><clipPath id="e5c5b490a5"><path d="M 0.488281 0 L 35.511719 0 L 35.511719 35.027344 L 0.488281 35.027344 Z M 0.488281 0 " clip-rule="nonzero"/></clipPath><clipPath id="4a4189e7b5"><path d="M 1 1.75 L 34 1.75 L 34 33.128906 L 1 33.128906 Z M 1 1.75 " clip-rule="nonzero"/></clipPath></defs><g clip-path="url(#e5c5b490a5)"><path fill="#ffffff" d="M 0.488281 0 L 35.511719 0 L 35.511719 77.351562 L 0.488281 77.351562 Z M 0.488281 0 " fill-opacity="1" fill-rule="nonzero"/><path fill="#ffffff" d="M 0.488281 0 L 35.511719 0 L 35.511719 35.027344 L 0.488281 35.027344 Z M 0.488281 0 " fill-opacity="1" fill-rule="nonzero"/><path fill="#ffffff" d="M 0.488281 0 L 35.511719 0 L 35.511719 35.027344 L 0.488281 35.027344 Z M 0.488281 0 " fill-opacity="1" fill-rule="nonzero"/></g><g clip-path="url(#4a4189e7b5)"><path fill="#e3a36f" d="M 17.980469 1.914062 C 22.980469 1.753906 28.160156 3.578125 31.644531 7.269531 C 35.152344 11.425781 34.136719 17.640625 31.492188 21.984375 C 27.195312 27.90625 18.808594 31.515625 11.8125 28.472656 C 8.765625 26.441406 6.605469 22.917969 6.445312 19.203125 C 6.546875 16.96875 6.996094 14.726562 7.960938 12.699219 C 9.917969 8.875 13.945312 6.238281 18.164062 5.746094 C 21.71875 5.464844 24.96875 7.378906 27.496094 9.703125 C 29.964844 12.132812 30.445312 16.089844 29.023438 19.183594 C 27.582031 22.679688 24.183594 24.925781 20.691406 25.976562 C 17.726562 26.765625 14.855469 25.078125 12.828125 23.027344 C 10.628906 21.25 9.539062 18.179688 10.53125 15.441406 C 12.433594 10.523438 19.023438 7.867188 23.609375 10.769531 C 25.96875 11.949219 26.980469 15.195312 25.585938 17.476562 C 24.113281 19.859375 21.863281 22.121094 18.925781 22.308594 C 16.117188 22.378906 13.222656 19.703125 13.847656 16.742188 C 14.992188 13.214844 19.707031 11.3125 22.90625 13.207031 C 25.714844 16.28125 21.644531 20.949219 18.1875 20.183594 C 16.128906 19.753906 16.019531 16.894531 17.289062 15.597656 C 18.375 14.832031 20.0625 14.566406 21.132812 15.484375 C 22.035156 16.835938 19.867188 18.957031 18.660156 17.628906 C 18.667969 17.355469 18.683594 16.808594 18.691406 16.539062 C 18.886719 16.371094 19.082031 16.203125 19.277344 16.035156 C 19.324219 16.113281 19.410156 16.261719 19.453125 16.339844 C 19.289062 16.636719 18.972656 17.039062 19.253906 17.363281 C 20.054688 17.832031 21.597656 16.238281 20.398438 15.714844 C 18.253906 14.609375 15.929688 17.300781 17.382812 19.242188 C 19.335938 20.65625 21.628906 18.976562 22.832031 17.386719 C 23.960938 15.976562 23.28125 13.441406 21.390625 13.140625 C 18.429688 12.601562 14.40625 14.523438 14.351562 17.917969 C 14.886719 20.136719 17.152344 21.648438 19.378906 21.476562 C 21.882812 21.066406 23.929688 19.175781 25.121094 17.003906 C 26.175781 15.222656 25.335938 12.722656 23.558594 11.765625 C 21.746094 10.585938 19.457031 10.328125 17.355469 10.652344 C 13.933594 11.632812 10.472656 14.738281 11.140625 18.65625 C 12.386719 21.695312 15.164062 24.085938 18.292969 24.980469 C 22.324219 25.328125 26.257812 22.617188 28.25 19.199219 C 29.386719 16.519531 29.457031 13.023438 27.359375 10.785156 C 25.226562 8.75 22.589844 6.964844 19.5625 6.785156 C 15.367188 6.492188 11.402344 9.03125 9.125 12.449219 C 7.773438 14.90625 7.164062 17.785156 7.371094 20.585938 C 8.03125 23.195312 9.703125 25.433594 11.753906 27.113281 C 17.175781 29.820312 23.871094 27.953125 28.234375 24.082031 C 30.980469 22.011719 32.496094 18.683594 32.875 15.3125 C 33.425781 12.507812 32.40625 9.554688 30.402344 7.570312 C 26.355469 3.851562 20.488281 3.035156 15.242188 3.589844 C 7.988281 5.40625 3.007812 12.703125 2.484375 19.996094 C 1.769531 23.382812 3.226562 27.09375 6.101562 29.007812 C 8.355469 30.78125 11.230469 31.417969 13.976562 31.984375 C 13.785156 32.355469 13.605469 32.730469 13.445312 33.113281 C 8.695312 32.496094 3.316406 30.152344 1.753906 25.160156 C 0.863281 20.96875 1.5625 16.523438 3.394531 12.6875 C 5.871094 6.90625 11.40625 1.765625 17.980469 1.914062 Z M 17.980469 1.914062 " fill-opacity="1" fill-rule="nonzero"/></g></svg>