<svg xmlns="http://www.w3.org/2000/svg" xmlns:xlink="http://www.w3.org/1999/xlink" width="48" zoomAndPan="magnify" viewBox="0 0 36 36.000001" height="48" preserveAspectRatio="xMidYMid meet" version="1.0"><defs><clipPath id="6517011dbf"><path d="M 0.488281 0 L 35.511719 0 L 35.511719 35.027344 L 0.488281 35.027344 Z M 0.488281 0 " clip-rule="nonzero"/></clipPath><clipPath id="83995c8a01"><path d="M 20.691406 16.230469 L 35.511719 16.230469 L 35.511719 17.8125 L 20.691406 17.8125 Z M 20.691406 16.230469 " clip-rule="nonzero"/></clipPath><clipPath id="55301d96d0"><path d="M 0.53125 10 L 4 10 L 4 12 L 0.53125 12 Z M 0.53125 10 " clip-rule="nonzero"/></clipPath><clipPath id="d3d673a3d1"><path d="M 0.53125 22 L 3 22 L 3 24 L 0.53125 24 Z M 0.53125 22 " clip-rule="nonzero"/></clipPath><clipPath id="75a24436cd"><path d="M 0.53125 17 L 3 17 L 3 18 L 0.53125 18 Z M 0.53125 17 " clip-rule="nonzero"/></clipPath><clipPath id="a8a36d7f99"><path d="M 16.246094 33.410156 L 16.644531 33.410156 L 16.644531 35.023438 L 16.246094 35.023438 Z M 16.246094 33.410156 " clip-rule="nonzero"/></clipPath><clipPath id="3d63af71ca"><path d="M 0.53125 24 L 1 24 L 1 25 L 0.53125 25 Z M 0.53125 24 " clip-rule="nonzero"/></clipPath></defs><g clip-path="url(#6517011dbf)"><path fill="#ffffff" d="M 0.488281 0 L 35.511719 0 L 35.511719 35.027344 L 0.488281 35.027344 Z M 0.488281 0 " fill-opacity="1" fill-rule="nonzero"/><path fill="#ffffff" d="M 0.488281 0 L 35.511719 0 L 35.511719 35.027344 L 0.488281 35.027344 Z M 0.488281 0 " fill-opacity="1" fill-rule="nonzero"/></g><path fill="#245966" d="M 10.925781 2.390625 C 11.355469 3.527344 11.902344 4.621094 12.109375 5.832031 C 12.210938 6.4375 12.492188 6.941406 13.003906 7.316406 C 13.277344 7.519531 13.515625 7.773438 13.773438 8 C 14.332031 8.496094 14.601562 9.117188 14.597656 9.863281 C 14.59375 10.125 14.578125 10.390625 14.554688 10.65625 C 14.476562 11.492188 14.8125 12.136719 15.449219 12.652344 C 15.570312 12.753906 15.695312 12.847656 15.820312 12.941406 C 16.320312 13.332031 16.339844 13.84375 16.226562 14.433594 C 16.03125 14.347656 16.015625 14.203125 15.992188 14.078125 C 15.925781 13.714844 15.726562 13.453125 15.433594 13.246094 C 15.078125 12.988281 14.753906 12.699219 14.484375 12.351562 C 14.042969 11.777344 13.84375 11.148438 13.945312 10.425781 C 13.980469 10.195312 13.980469 9.960938 14 9.726562 C 14.046875 9.160156 13.855469 8.691406 13.417969 8.316406 C 13.097656 8.042969 12.792969 7.75 12.464844 7.484375 C 11.976562 7.089844 11.699219 6.582031 11.640625 5.964844 C 11.53125 4.726562 11.15625 3.554688 10.761719 2.390625 C 10.816406 2.390625 10.871094 2.390625 10.925781 2.390625 " fill-opacity="1" fill-rule="nonzero"/><path fill="#245966" d="M 22.863281 3.152344 C 22.609375 4.070312 22.390625 4.992188 22.304688 5.945312 C 22.253906 6.527344 21.996094 7.011719 21.546875 7.402344 C 21.179688 7.71875 20.832031 8.054688 20.472656 8.382812 C 20.128906 8.699219 19.980469 9.097656 20.003906 9.558594 C 20.019531 9.886719 20.042969 10.210938 20.085938 10.535156 C 20.183594 11.289062 19.90625 11.914062 19.4375 12.472656 C 19.230469 12.726562 18.992188 12.957031 18.722656 13.144531 C 18.375 13.386719 18.128906 13.691406 18.058594 14.125 C 18.042969 14.230469 18.019531 14.339844 17.90625 14.398438 C 17.675781 13.9375 17.753906 13.40625 18.117188 13.042969 C 18.257812 12.898438 18.421875 12.777344 18.578125 12.648438 C 19.214844 12.128906 19.550781 11.480469 19.464844 10.640625 C 19.429688 10.300781 19.421875 9.957031 19.429688 9.613281 C 19.441406 9.027344 19.652344 8.515625 20.074219 8.101562 C 20.351562 7.828125 20.625 7.542969 20.929688 7.304688 C 21.453125 6.898438 21.753906 6.378906 21.855469 5.730469 C 21.996094 4.832031 22.324219 3.988281 22.671875 3.152344 C 22.738281 3.152344 22.800781 3.152344 22.863281 3.152344 " fill-opacity="1" fill-rule="nonzero"/><path fill="#245966" d="M 23.046875 31.058594 C 22.902344 31.054688 22.886719 30.933594 22.847656 30.835938 C 22.515625 30.011719 22.160156 29.195312 22.015625 28.308594 C 21.914062 27.664062 21.609375 27.144531 21.085938 26.742188 C 20.800781 26.523438 20.546875 26.265625 20.28125 26.023438 C 19.761719 25.554688 19.523438 24.964844 19.523438 24.277344 C 19.523438 23.949219 19.527344 23.621094 19.550781 23.292969 C 19.605469 22.523438 19.265625 21.941406 18.699219 21.460938 C 18.53125 21.320312 18.351562 21.195312 18.191406 21.046875 C 17.816406 20.695312 17.726562 20.210938 17.925781 19.683594 C 18.074219 19.726562 18.085938 19.859375 18.105469 19.976562 C 18.183594 20.390625 18.429688 20.671875 18.765625 20.90625 C 19.152344 21.175781 19.46875 21.515625 19.75 21.898438 C 20.167969 22.464844 20.28125 23.109375 20.148438 23.769531 C 19.945312 24.800781 20.332031 25.519531 21.121094 26.164062 C 22.386719 27.195312 22.367188 27.234375 22.566406 28.839844 C 22.644531 29.476562 22.859375 30.082031 23.011719 30.703125 C 23.039062 30.820312 23.117188 30.933594 23.046875 31.058594 " fill-opacity="1" fill-rule="nonzero"/><path fill="#245966" d="M 16.257812 19.652344 C 16.445312 20.378906 16.253906 20.917969 15.652344 21.34375 C 14.859375 21.902344 14.507812 22.679688 14.65625 23.65625 C 14.699219 23.953125 14.707031 24.246094 14.683594 24.542969 C 14.632812 25.125 14.417969 25.628906 13.984375 26.03125 C 13.679688 26.320312 13.382812 26.621094 13.058594 26.890625 C 12.667969 27.210938 12.425781 27.609375 12.3125 28.097656 C 12.15625 28.78125 12.050781 29.476562 11.757812 30.121094 C 11.628906 30.394531 11.5 30.667969 11.332031 31.019531 C 11.269531 30.753906 11.3125 30.59375 11.367188 30.421875 C 11.582031 29.769531 11.714844 29.097656 11.765625 28.410156 C 11.820312 27.65625 12.097656 27.03125 12.707031 26.554688 C 13.011719 26.316406 13.289062 26.039062 13.574219 25.773438 C 13.953125 25.425781 14.144531 25 14.101562 24.480469 C 14.085938 24.277344 14.097656 24.070312 14.058594 23.875 C 13.824219 22.691406 14.34375 21.820312 15.195312 21.082031 C 15.269531 21.023438 15.34375 20.964844 15.417969 20.910156 C 15.746094 20.675781 15.988281 20.386719 16.046875 19.964844 C 16.0625 19.855469 16.074219 19.714844 16.257812 19.652344 " fill-opacity="1" fill-rule="nonzero"/><path fill="#245966" d="M 30.902344 11.25 C 30.042969 11.628906 29.171875 11.957031 28.242188 12.121094 C 27.652344 12.226562 27.171875 12.523438 26.800781 13.007812 C 26.566406 13.316406 26.28125 13.589844 26.015625 13.875 C 25.574219 14.34375 25.023438 14.570312 24.386719 14.578125 C 24.027344 14.582031 23.667969 14.574219 23.308594 14.550781 C 22.59375 14.503906 22.035156 14.800781 21.570312 15.308594 C 21.425781 15.46875 21.300781 15.652344 21.15625 15.816406 C 20.769531 16.269531 20.261719 16.394531 19.695312 16.171875 C 19.742188 16.027344 19.875 16.011719 19.992188 15.992188 C 20.410156 15.929688 20.691406 15.671875 20.925781 15.34375 C 21.195312 14.960938 21.535156 14.640625 21.917969 14.363281 C 22.46875 13.964844 23.089844 13.820312 23.738281 13.949219 C 24.800781 14.164062 25.609375 13.839844 26.210938 12.957031 C 26.226562 12.929688 26.253906 12.910156 26.269531 12.886719 C 26.867188 11.996094 27.722656 11.609375 28.769531 11.554688 C 29.300781 11.527344 29.816406 11.386719 30.3125 11.195312 C 30.464844 11.136719 30.621094 11.164062 30.769531 11.113281 C 30.8125 11.160156 30.859375 11.203125 30.902344 11.25 " fill-opacity="1" fill-rule="nonzero"/><path fill="#245966" d="M 3.386719 11.332031 C 4.253906 11.550781 5.125 11.726562 6.011719 11.820312 C 6.542969 11.875 6.992188 12.121094 7.347656 12.527344 C 7.667969 12.890625 8.003906 13.238281 8.332031 13.597656 C 8.683594 13.984375 9.121094 14.140625 9.636719 14.101562 C 9.964844 14.078125 10.289062 14.050781 10.617188 14.015625 C 11.226562 13.949219 11.757812 14.140625 12.242188 14.488281 C 12.578125 14.726562 12.875 15.003906 13.113281 15.335938 C 13.378906 15.707031 13.699219 15.980469 14.167969 16.046875 C 14.257812 16.058594 14.351562 16.089844 14.390625 16.191406 C 13.925781 16.433594 13.375 16.339844 13.003906 15.945312 C 12.84375 15.773438 12.703125 15.585938 12.546875 15.410156 C 12.0625 14.867188 11.472656 14.574219 10.722656 14.636719 C 10.378906 14.664062 10.035156 14.675781 9.691406 14.675781 C 9.050781 14.675781 8.496094 14.457031 8.050781 13.996094 C 7.820312 13.761719 7.570312 13.539062 7.378906 13.277344 C 6.921875 12.664062 6.316406 12.332031 5.566406 12.222656 C 4.804688 12.109375 4.085938 11.847656 3.386719 11.53125 C 3.386719 11.464844 3.386719 11.398438 3.386719 11.332031 " fill-opacity="1" fill-rule="nonzero"/><path fill="#245966" d="M 30.789062 22.765625 C 29.9375 22.558594 29.089844 22.351562 28.214844 22.28125 C 27.597656 22.230469 27.089844 21.949219 26.683594 21.46875 C 26.394531 21.121094 26.078125 20.796875 25.769531 20.46875 C 25.441406 20.117188 25.03125 19.953125 24.550781 19.984375 C 24.316406 19.996094 24.078125 19.996094 23.851562 20.039062 C 22.90625 20.214844 22.128906 19.890625 21.457031 19.253906 C 21.273438 19.085938 21.109375 18.894531 20.960938 18.695312 C 20.707031 18.359375 20.414062 18.101562 19.976562 18.046875 C 19.871094 18.03125 19.757812 18.003906 19.675781 17.832031 C 20.15625 17.742188 20.601562 17.6875 20.996094 18.035156 C 21.132812 18.15625 21.257812 18.300781 21.367188 18.449219 C 21.945312 19.207031 22.691406 19.570312 23.652344 19.433594 C 23.839844 19.410156 24.027344 19.398438 24.214844 19.390625 C 25.007812 19.371094 25.683594 19.632812 26.214844 20.234375 C 26.421875 20.464844 26.65625 20.679688 26.847656 20.925781 C 27.261719 21.464844 27.8125 21.742188 28.472656 21.84375 C 29.28125 21.96875 30.046875 22.242188 30.789062 22.570312 C 30.789062 22.636719 30.789062 22.703125 30.789062 22.765625 " fill-opacity="1" fill-rule="nonzero"/><path fill="#245966" d="M 14.453125 17.867188 C 14.375 18.054688 14.238281 18.074219 14.125 18.089844 C 13.703125 18.152344 13.421875 18.40625 13.1875 18.734375 C 12.960938 19.054688 12.695312 19.335938 12.386719 19.578125 C 11.808594 20.035156 11.160156 20.246094 10.417969 20.144531 C 10.1875 20.109375 9.949219 20.105469 9.71875 20.085938 C 9.125 20.03125 8.652344 20.261719 8.273438 20.703125 C 8.015625 21 7.742188 21.28125 7.5 21.585938 C 7.089844 22.105469 6.546875 22.367188 5.898438 22.449219 C 5.042969 22.558594 4.1875 22.652344 3.375 22.960938 C 3.304688 22.984375 3.199219 23.019531 3.164062 22.933594 C 3.125 22.824219 3.21875 22.789062 3.3125 22.753906 C 4.070312 22.46875 4.816406 22.148438 5.621094 22.015625 C 6.347656 21.898438 6.949219 21.597656 7.386719 20.984375 C 7.554688 20.742188 7.785156 20.546875 7.980469 20.320312 C 8.550781 19.664062 9.285156 19.445312 10.125 19.496094 C 10.359375 19.507812 10.59375 19.519531 10.828125 19.535156 C 11.464844 19.574219 11.984375 19.332031 12.425781 18.886719 C 12.554688 18.753906 12.6875 18.617188 12.792969 18.464844 C 13.1875 17.859375 13.742188 17.710938 14.453125 17.867188 " fill-opacity="1" fill-rule="nonzero"/><path fill="#245966" d="M 19.828125 19.882812 C 20.171875 19.695312 20.632812 19.753906 20.949219 20.019531 C 21.09375 20.140625 21.214844 20.285156 21.292969 20.457031 C 21.730469 21.410156 22.53125 22 23.378906 22.542969 C 23.65625 22.71875 23.941406 22.882812 24.226562 23.042969 C 24.816406 23.378906 25.242188 23.863281 25.527344 24.472656 C 25.734375 24.910156 25.925781 25.351562 26.136719 25.785156 C 26.445312 26.417969 26.925781 26.863281 27.59375 27.09375 C 27.726562 27.140625 27.855469 27.199219 27.988281 27.246094 C 28.515625 27.425781 28.910156 27.730469 29.128906 28.269531 C 29.324219 28.753906 29.707031 29.117188 30.089844 29.464844 C 30.179688 29.546875 30.300781 29.597656 30.351562 29.746094 C 30.210938 29.824219 30.121094 29.722656 30.035156 29.652344 C 29.523438 29.222656 28.984375 28.808594 28.660156 28.203125 C 28.554688 28.011719 28.390625 27.902344 28.199219 27.824219 C 27.894531 27.707031 27.589844 27.585938 27.28125 27.476562 C 26.695312 27.273438 26.253906 26.898438 25.921875 26.382812 C 25.652344 25.960938 25.433594 25.511719 25.269531 25.039062 C 25 24.269531 24.523438 23.679688 23.804688 23.289062 C 23.15625 22.933594 22.578125 22.488281 22.03125 21.992188 C 21.675781 21.675781 21.367188 21.332031 21.1875 20.890625 C 20.953125 20.328125 20.625 19.914062 19.941406 19.957031 C 19.90625 19.960938 19.867188 19.910156 19.828125 19.882812 " fill-opacity="1" fill-rule="nonzero"/><g clip-path="url(#83995c8a01)"><path fill="#245966" d="M 20.707031 17.070312 C 20.964844 16.855469 21.246094 16.882812 21.527344 16.96875 C 21.75 17.035156 21.96875 17.121094 22.191406 17.195312 C 22.550781 17.324219 22.894531 17.289062 23.238281 17.128906 C 23.519531 16.996094 23.800781 16.863281 24.089844 16.742188 C 24.898438 16.402344 25.699219 16.402344 26.480469 16.835938 C 26.5625 16.882812 26.652344 16.917969 26.726562 16.96875 C 27.519531 17.507812 28.34375 17.539062 29.226562 17.203125 C 30.089844 16.878906 30.964844 16.59375 31.878906 16.433594 C 32.808594 16.269531 33.742188 16.257812 34.679688 16.308594 C 34.964844 16.324219 35.269531 16.351562 35.554688 16.683594 C 34.84375 16.492188 34.222656 16.507812 33.589844 16.535156 C 32.597656 16.578125 31.640625 16.789062 30.699219 17.085938 C 30.117188 17.269531 29.535156 17.445312 28.960938 17.644531 C 28.25 17.898438 27.578125 17.804688 26.925781 17.464844 C 26.828125 17.414062 26.726562 17.367188 26.636719 17.308594 C 25.882812 16.84375 25.09375 16.863281 24.289062 17.136719 C 23.964844 17.25 23.648438 17.378906 23.328125 17.507812 C 22.964844 17.65625 22.605469 17.648438 22.230469 17.527344 C 21.730469 17.371094 21.269531 17.078125 20.707031 17.070312 " fill-opacity="1" fill-rule="nonzero"/></g><path fill="#245966" d="M 17.21875 0.00390625 C 17.445312 0.203125 17.464844 0.40625 17.472656 0.601562 C 17.511719 1.253906 17.511719 1.910156 17.492188 2.5625 C 17.484375 2.816406 17.40625 3.054688 17.316406 3.289062 C 17.191406 3.625 17.195312 3.957031 17.304688 4.296875 C 17.484375 4.84375 17.648438 5.394531 17.757812 5.960938 C 17.898438 6.667969 17.8125 7.324219 17.429688 7.9375 C 17.246094 8.226562 17.070312 8.523438 16.980469 8.859375 C 16.808594 9.53125 16.984375 10.15625 17.253906 10.765625 C 17.378906 11.050781 17.515625 11.328125 17.597656 11.632812 C 17.679688 11.929688 17.597656 12.1875 17.449219 12.433594 C 17.394531 12.527344 17.316406 12.628906 17.1875 12.582031 C 17.0625 12.535156 17.039062 12.40625 17.089844 12.308594 C 17.292969 11.898438 17.097656 11.546875 16.949219 11.191406 C 16.800781 10.832031 16.628906 10.480469 16.535156 10.101562 C 16.371094 9.4375 16.4375 8.800781 16.746094 8.191406 C 16.898438 7.886719 17.054688 7.582031 17.207031 7.273438 C 17.3125 7.0625 17.386719 6.835938 17.371094 6.597656 C 17.320312 5.898438 17.277344 5.199219 16.996094 4.542969 C 16.808594 4.113281 16.738281 3.664062 16.917969 3.222656 C 17.285156 2.324219 17.25 1.394531 17.222656 0.457031 C 17.21875 0.332031 17.222656 0.210938 17.21875 0.00390625 " fill-opacity="1" fill-rule="nonzero"/><path fill="#245966" d="M 29.023438 5.804688 C 28.628906 6.105469 28.207031 6.359375 27.832031 6.683594 C 27.167969 7.253906 26.609375 7.933594 25.957031 8.511719 C 25.726562 8.714844 25.640625 9.007812 25.542969 9.289062 C 25.441406 9.566406 25.339844 9.847656 25.164062 10.089844 C 24.875 10.488281 24.476562 10.710938 24 10.808594 C 23.660156 10.878906 23.324219 10.941406 22.988281 11.015625 C 22.347656 11.160156 21.898438 11.527344 21.660156 12.148438 C 21.492188 12.582031 21.289062 13.007812 21.148438 13.453125 C 20.957031 14.066406 20.542969 14.453125 19.984375 14.71875 C 19.910156 14.753906 19.839844 14.789062 19.773438 14.714844 C 19.714844 14.648438 19.726562 14.566406 19.761719 14.496094 C 19.828125 14.367188 19.933594 14.269531 20.054688 14.199219 C 20.398438 13.996094 20.578125 13.679688 20.699219 13.3125 C 20.859375 12.839844 21.03125 12.375 21.230469 11.914062 C 21.539062 11.203125 22.066406 10.765625 22.820312 10.597656 C 23.199219 10.511719 23.585938 10.4375 23.96875 10.375 C 24.546875 10.277344 24.96875 9.96875 25.140625 9.421875 C 25.367188 8.710938 25.78125 8.167969 26.347656 7.6875 C 26.941406 7.183594 27.476562 6.613281 28.125 6.171875 C 28.390625 5.984375 28.664062 5.804688 29.023438 5.804688 " fill-opacity="1" fill-rule="nonzero"/><path fill="#245966" d="M 16.925781 18.949219 C 18.074219 18.941406 18.941406 18.042969 18.933594 16.871094 C 18.925781 15.777344 18.007812 14.886719 16.910156 14.902344 C 15.792969 14.917969 14.921875 15.851562 14.933594 17.023438 C 14.945312 18.128906 15.804688 18.957031 16.925781 18.949219 Z M 14.589844 16.902344 C 14.589844 15.660156 15.660156 14.632812 16.960938 14.625 C 18.261719 14.617188 19.351562 15.695312 19.363281 16.996094 C 19.371094 18.265625 18.277344 19.34375 16.988281 19.335938 C 15.664062 19.332031 14.589844 18.238281 14.589844 16.902344 " fill-opacity="1" fill-rule="nonzero"/><path fill="#245966" d="M 16.417969 33.441406 C 16.5 32.898438 16.527344 32.355469 16.472656 31.808594 C 16.445312 31.550781 16.523438 31.316406 16.648438 31.09375 C 16.984375 30.492188 17.039062 29.855469 16.851562 29.195312 C 16.769531 28.910156 16.714844 28.621094 16.628906 28.335938 C 16.480469 27.832031 16.539062 27.351562 16.769531 26.882812 C 16.777344 26.871094 16.78125 26.855469 16.792969 26.84375 C 17.316406 26.0625 17.265625 25.242188 16.890625 24.441406 C 16.519531 23.644531 16.53125 22.878906 16.929688 22.105469 C 17.105469 21.761719 17.085938 21.378906 17.074219 21.003906 C 17.066406 20.792969 17.035156 20.578125 17.097656 20.347656 C 17.3125 20.382812 17.320312 20.53125 17.328125 20.664062 C 17.359375 21.363281 17.429688 22.0625 17.121094 22.734375 C 16.917969 23.183594 16.953125 23.636719 17.164062 24.09375 C 17.320312 24.433594 17.421875 24.796875 17.542969 25.148438 C 17.71875 25.667969 17.667969 26.171875 17.398438 26.640625 C 16.660156 27.933594 16.875 27.859375 17.160156 28.976562 C 17.375 29.800781 17.320312 30.582031 16.898438 31.328125 C 16.804688 31.492188 16.742188 31.667969 16.757812 31.863281 C 16.808594 32.429688 16.679688 32.980469 16.582031 33.53125 C 16.527344 33.5 16.472656 33.46875 16.417969 33.441406 " fill-opacity="1" fill-rule="nonzero"/><path fill="#245966" d="M 4.546875 29.960938 C 5.210938 29.226562 5.792969 28.398438 6.714844 27.933594 C 6.910156 27.835938 7.0625 27.675781 7.191406 27.496094 C 7.382812 27.222656 7.523438 26.929688 7.621094 26.617188 C 7.792969 26.074219 8.140625 25.703125 8.675781 25.503906 C 9.167969 25.320312 9.511719 24.96875 9.769531 24.527344 C 10.21875 23.757812 10.6875 23.007812 10.929688 22.136719 C 11.089844 21.570312 11.367188 21.359375 11.964844 21.394531 C 12.589844 21.425781 13.007812 21.167969 13.351562 20.691406 C 13.671875 20.253906 13.957031 19.777344 14.453125 19.5 C 14.574219 19.429688 14.683594 19.335938 14.832031 19.324219 C 14.953125 19.316406 15.054688 19.355469 15.082031 19.480469 C 15.109375 19.589844 15.046875 19.652344 14.945312 19.6875 C 14.480469 19.855469 14.171875 20.199219 13.921875 20.605469 C 13.722656 20.925781 13.457031 21.191406 13.199219 21.460938 C 12.976562 21.691406 12.714844 21.796875 12.398438 21.777344 C 12.226562 21.765625 12.054688 21.773438 11.882812 21.765625 C 11.558594 21.75 11.335938 21.894531 11.246094 22.203125 C 10.992188 23.070312 10.492188 23.808594 10.03125 24.566406 C 9.707031 25.097656 9.320312 25.546875 8.707031 25.761719 C 8.230469 25.929688 7.957031 26.285156 7.804688 26.765625 C 7.59375 27.445312 7.210938 27.992188 6.519531 28.285156 C 6.15625 28.441406 5.910156 28.769531 5.625 29.03125 C 5.359375 29.273438 5.113281 29.535156 4.851562 29.78125 C 4.765625 29.863281 4.695312 29.984375 4.542969 29.957031 L 4.546875 29.960938 " fill-opacity="1" fill-rule="nonzero"/><path fill="#245966" d="M 6.363281 6.441406 C 6.953125 6.953125 7.441406 7.570312 8.058594 8.054688 C 8.265625 8.222656 8.390625 8.472656 8.492188 8.714844 C 8.835938 9.519531 9.441406 10.046875 10.238281 10.386719 C 10.554688 10.519531 10.859375 10.679688 11.171875 10.820312 C 11.726562 11.074219 12.164062 11.457031 12.476562 11.984375 C 12.742188 12.425781 13.03125 12.847656 13.355469 13.25 C 13.609375 13.5625 13.90625 13.800781 14.300781 13.902344 C 14.378906 13.917969 14.453125 13.945312 14.523438 13.980469 C 14.59375 14.015625 14.660156 14.066406 14.628906 14.160156 C 14.601562 14.25 14.515625 14.269531 14.441406 14.253906 C 14.023438 14.164062 13.625 14.042969 13.320312 13.714844 C 12.960938 13.320312 12.652344 12.894531 12.359375 12.449219 C 12.316406 12.382812 12.273438 12.320312 12.242188 12.25 C 11.957031 11.609375 11.453125 11.226562 10.816406 10.976562 C 10.496094 10.851562 10.195312 10.683594 9.882812 10.542969 C 9.183594 10.226562 8.664062 9.726562 8.351562 9.03125 C 8.121094 8.519531 7.792969 8.113281 7.363281 7.753906 C 6.945312 7.40625 6.578125 6.996094 6.257812 6.550781 C 6.292969 6.515625 6.328125 6.480469 6.363281 6.441406 " fill-opacity="1" fill-rule="nonzero"/><path fill="#245966" d="M 13.605469 16.757812 C 13.515625 17.050781 13.359375 17.070312 13.203125 17.082031 C 12.871094 17.105469 12.550781 17.050781 12.234375 16.949219 C 11.96875 16.863281 11.699219 16.773438 11.429688 16.691406 C 10.925781 16.535156 10.445312 16.574219 9.996094 16.871094 C 9.800781 17.003906 9.597656 17.121094 9.390625 17.230469 C 8.917969 17.472656 8.433594 17.488281 7.949219 17.25 C 7.683594 17.121094 7.410156 17.003906 7.136719 16.882812 C 6.625 16.65625 6.140625 16.691406 5.675781 17.019531 C 5.289062 17.292969 4.882812 17.519531 4.386719 17.53125 C 3.847656 17.542969 3.320312 17.476562 2.75 17.253906 C 2.953125 17.101562 3.101562 17.148438 3.246094 17.179688 C 3.535156 17.242188 3.828125 17.292969 4.125 17.292969 C 4.625 17.292969 5.085938 17.148438 5.480469 16.84375 C 6.078125 16.390625 6.71875 16.375 7.386719 16.644531 C 7.601562 16.734375 7.816406 16.828125 8.03125 16.925781 C 8.476562 17.132812 8.90625 17.117188 9.328125 16.859375 C 9.527344 16.738281 9.730469 16.621094 9.933594 16.507812 C 10.410156 16.238281 10.90625 16.179688 11.425781 16.351562 C 11.605469 16.410156 11.78125 16.46875 11.957031 16.535156 C 12.464844 16.734375 12.972656 16.945312 13.605469 16.757812 " fill-opacity="1" fill-rule="nonzero"/><g clip-path="url(#55301d96d0)"><path fill="#e75816" d="M 3.386719 11.332031 C 3.386719 11.398438 3.386719 11.464844 3.386719 11.53125 C 2.410156 11.246094 1.460938 10.902344 0.621094 10.3125 C 1.523438 10.710938 2.46875 10.984375 3.386719 11.332031 " fill-opacity="1" fill-rule="nonzero"/></g><path fill="#e75816" d="M 30.902344 11.25 C 30.859375 11.203125 30.8125 11.160156 30.769531 11.113281 C 31.105469 10.910156 31.492188 10.839844 31.851562 10.695312 C 32.285156 10.523438 32.71875 10.351562 33.132812 10.136719 C 33.265625 10.070312 33.402344 10.015625 33.558594 9.996094 C 32.761719 10.601562 31.847656 10.957031 30.902344 11.25 " fill-opacity="1" fill-rule="nonzero"/><path fill="#e75816" d="M 30.789062 22.765625 C 30.789062 22.703125 30.789062 22.636719 30.789062 22.570312 C 31.773438 22.855469 32.71875 23.226562 33.59375 23.75 C 33.582031 23.78125 33.570312 23.8125 33.554688 23.84375 C 33.097656 23.65625 32.644531 23.460938 32.183594 23.28125 C 31.722656 23.101562 31.253906 22.9375 30.789062 22.765625 " fill-opacity="1" fill-rule="nonzero"/><path fill="#e75816" d="M 22.863281 3.152344 C 22.800781 3.152344 22.738281 3.152344 22.671875 3.152344 C 22.9375 2.242188 23.28125 1.367188 23.835938 0.582031 C 23.480469 1.429688 23.203125 2.300781 22.863281 3.152344 " fill-opacity="1" fill-rule="nonzero"/><path fill="#e75816" d="M 11.324219 31.234375 C 11.085938 32.085938 10.746094 32.890625 10.226562 33.648438 C 10.199219 33.578125 10.171875 33.546875 10.179688 33.53125 C 10.570312 32.789062 10.824219 31.988281 11.167969 31.226562 C 11.21875 31.226562 11.273438 31.230469 11.324219 31.234375 " fill-opacity="1" fill-rule="nonzero"/><g clip-path="url(#d3d673a3d1)"><path fill="#e75816" d="M 2.910156 23.101562 C 2.742188 23.25 2.523438 23.289062 2.320312 23.363281 C 1.929688 23.507812 1.539062 23.664062 1.164062 23.851562 C 1.046875 23.910156 0.933594 24.015625 0.777344 23.96875 C 1.03125 23.65625 2.117188 23.136719 2.902344 22.945312 C 2.90625 23 2.90625 23.050781 2.910156 23.101562 " fill-opacity="1" fill-rule="nonzero"/></g><path fill="#e75816" d="M 6.363281 6.441406 C 6.328125 6.480469 6.292969 6.515625 6.257812 6.550781 C 5.671875 5.992188 5.21875 5.332031 4.726562 4.628906 C 4.84375 4.679688 4.757812 4.644531 4.816406 4.617188 C 4.828125 4.613281 4.851562 4.617188 4.859375 4.625 C 5.359375 5.230469 5.863281 5.835938 6.363281 6.441406 " fill-opacity="1" fill-rule="nonzero"/><path fill="#e75816" d="M 23.203125 31.332031 C 23.449219 31.710938 23.53125 32.164062 23.730469 32.5625 C 23.863281 32.835938 23.988281 33.113281 24.066406 33.40625 C 23.578125 32.792969 23.28125 32.082031 23.050781 31.339844 C 23.101562 31.335938 23.152344 31.332031 23.203125 31.332031 " fill-opacity="1" fill-rule="nonzero"/><path fill="#e75816" d="M 10.925781 2.390625 C 10.871094 2.390625 10.816406 2.390625 10.761719 2.390625 C 10.507812 1.820312 10.25 1.25 9.992188 0.679688 C 10.019531 0.667969 10.050781 0.652344 10.078125 0.640625 C 10.46875 1.167969 10.730469 1.765625 10.925781 2.390625 " fill-opacity="1" fill-rule="nonzero"/><g clip-path="url(#75a24436cd)"><path fill="#e75816" d="M 2.519531 17.308594 C 1.917969 17.390625 1.316406 17.472656 0.714844 17.554688 C 0.710938 17.527344 0.707031 17.496094 0.699219 17.464844 C 1.277344 17.242188 1.886719 17.175781 2.496094 17.148438 C 2.503906 17.199219 2.511719 17.253906 2.519531 17.308594 " fill-opacity="1" fill-rule="nonzero"/></g><g clip-path="url(#a8a36d7f99)"><path fill="#e75816" d="M 16.417969 33.441406 C 16.472656 33.46875 16.527344 33.5 16.582031 33.53125 C 16.59375 34.011719 16.425781 34.476562 16.535156 35.023438 C 16.257812 34.707031 16.234375 34.152344 16.417969 33.441406 " fill-opacity="1" fill-rule="nonzero"/></g><g clip-path="url(#3d63af71ca)"><path fill="#e75816" d="M 0.640625 24.050781 C 0.625 24.074219 0.617188 24.097656 0.597656 24.117188 C 0.570312 24.140625 0.535156 24.132812 0.53125 24.101562 C 0.527344 24.082031 0.550781 24.046875 0.570312 24.035156 C 0.585938 24.027344 0.617188 24.046875 0.640625 24.050781 " fill-opacity="1" fill-rule="nonzero"/></g><path fill="#245966" d="M 23.203125 31.332031 C 23.152344 31.332031 23.101562 31.335938 23.050781 31.339844 C 23.039062 31.273438 22.984375 31.175781 23.074219 31.15625 C 23.179688 31.136719 23.179688 31.257812 23.203125 31.332031 " fill-opacity="1" fill-rule="nonzero"/><path fill="#245966" d="M 11.324219 31.234375 C 11.273438 31.230469 11.21875 31.226562 11.167969 31.226562 C 11.191406 31.148438 11.191406 31.027344 11.300781 31.046875 C 11.390625 31.066406 11.335938 31.167969 11.324219 31.234375 " fill-opacity="1" fill-rule="nonzero"/><path fill="#245966" d="M 2.910156 23.101562 C 2.90625 23.050781 2.90625 23 2.902344 22.945312 C 2.96875 22.933594 3.066406 22.878906 3.085938 22.96875 C 3.109375 23.078125 2.988281 23.078125 2.910156 23.101562 " fill-opacity="1" fill-rule="nonzero"/><path fill="#245966" d="M 4.542969 29.957031 L 4.535156 29.980469 C 4.535156 29.980469 4.546875 29.960938 4.546875 29.960938 C 4.546875 29.960938 4.542969 29.957031 4.542969 29.957031 " fill-opacity="1" fill-rule="nonzero"/></svg>